<svg xmlns="http://www.w3.org/2000/svg" viewBox="0 0 200 200" width="400" height="400">
  <defs>
    <linearGradient id="bgp009" x1="0" y1="0" x2="1" y2="1">
      <stop offset="0%" stop-color="#e3f2fd"/>
      <stop offset="100%" stop-color="#bbdefb"/>
    </linearGradient>
  </defs>
  <rect width="200" height="200" rx="24" fill="url(#bgp009)"/>
  <g><circle cx="100" cy="55" r="22" fill="#1565c0"/>
<path d="M80 75 Q65 85 60 130 Q70 140 100 140 Q130 140 140 130 Q135 85 120 75 Z" fill="#1565c0"/>
<path d="M60 130 Q50 150 45 170" stroke="#1565c0" stroke-width="6" stroke-linecap="round" fill="none"/>
<path d="M140 130 Q150 150 155 170" stroke="#1565c0" stroke-width="6" stroke-linecap="round" fill="none"/>
<path d="M80 140 Q82 165 80 180" stroke="#1565c0" stroke-width="6" stroke-linecap="round" fill="none"/>
<path d="M120 140 Q118 165 120 180" stroke="#1565c0" stroke-width="6" stroke-linecap="round" fill="none"/>
<path d="M75 55 Q68 42 74 35 Q80 28 100 33 Q120 28 126 35 Q132 42 125 55" fill="#1565c0" opacity="0.6"/>
<path d="M90 52 l5 5 l5-5" stroke="#fff" stroke-width="2" fill="none" opacity="0.5"/></g>
</svg>