<svg xmlns="http://www.w3.org/2000/svg" viewBox="0 0 200 200" width="400" height="400">
  <defs>
    <linearGradient id="bgp012" x1="0" y1="0" x2="1" y2="1">
      <stop offset="0%" stop-color="#fff8e1"/>
      <stop offset="100%" stop-color="#ffecb3"/>
    </linearGradient>
  </defs>
  <rect width="200" height="200" rx="24" fill="url(#bgp012)"/>
  <g><circle cx="100" cy="52" r="24" fill="#fff" opacity="0.9"/>
<circle cx="100" cy="52" r="24" fill="#e65100" opacity="0.3"/>
<path d="M78 74 Q60 88 55 120 Q65 135 100 138 Q135 135 145 120 Q140 88 122 74 Z" fill="#fff" opacity="0.9"/>
<path d="M78 74 Q60 88 55 120 Q65 135 100 138 Q135 135 145 120 Q140 88 122 74 Z" fill="#e65100" opacity="0.35"/>
<path d="M55 120 Q35 115 28 155 Q38 165 55 155 Z" fill="#e65100" opacity="0.7"/>
<path d="M145 120 Q165 115 172 155 Q162 165 145 155 Z" fill="#e65100" opacity="0.7"/>
<path d="M82 138 Q78 168 76 185" stroke="#e65100" stroke-width="7" stroke-linecap="round" fill="none"/>
<path d="M118 138 Q122 168 124 185" stroke="#e65100" stroke-width="7" stroke-linecap="round" fill="none"/>
<ellipse cx="100" cy="52" rx="10" ry="5" fill="#fff" opacity="0.5"/></g>
</svg>